<svg width="204" height="46" viewBox="0 0 204 46" fill="none" xmlns="http://www.w3.org/2000/svg">
<g clip-path="url(#clip0)">
<path fill-rule="evenodd" clip-rule="evenodd" d="M31.9323 15.5282H26.1543V12.5449H41.3337V15.5282H35.5557V30.5416H31.9323V15.5282Z" fill="#5F295E"/>
<path fill-rule="evenodd" clip-rule="evenodd" d="M40.9072 18.488H44.0812L44.1042 20.4772C44.4358 19.7665 44.8817 19.2223 45.4422 18.8431C46.0026 18.4644 46.6539 18.2754 47.396 18.2754C47.9009 18.2754 48.3665 18.3612 48.7934 18.5351L48.509 21.6373C48.0193 21.4483 47.5295 21.3529 47.0404 21.3529C46.1411 21.3529 45.4422 21.6771 44.9451 22.324C44.4475 22.9713 44.199 23.879 44.199 25.0469V30.5411H40.9072V18.488Z" fill="#5F295E"/>
<path fill-rule="evenodd" clip-rule="evenodd" d="M55.8969 27.9833C56.8281 27.9833 57.5944 27.6596 58.1941 27.0122C58.7937 26.3648 59.0939 25.529 59.0939 24.5024C59.0939 23.4921 58.7977 22.6635 58.2058 22.0162C57.614 21.3688 56.8438 21.0451 55.8969 21.0451C54.9499 21.0451 54.1803 21.3688 53.589 22.0162C52.9961 22.6635 52.6999 23.4921 52.6999 24.5024C52.6999 25.529 53 26.3648 53.5997 27.0122C54.1999 27.6596 54.9656 27.9833 55.8969 27.9833ZM54.9971 30.9194C53.9391 30.9194 52.9882 30.6597 52.1439 30.138C51.2997 29.6174 50.6315 28.8713 50.1429 27.9002C49.6538 26.9292 49.4092 25.8128 49.4092 24.5495C49.4092 23.3816 49.6498 22.3124 50.1306 21.3413C50.613 20.3703 51.2946 19.5883 52.1798 18.9964C53.0634 18.4046 54.058 18.1084 55.1631 18.1084C55.9838 18.1084 56.7294 18.2789 57.4014 18.6178C58.0712 18.9577 58.6047 19.4351 58.9996 20.0505L59.0462 18.4876H62.1961V30.5407H59.0462L58.9996 29.0014C58.5879 29.6331 58.0437 30.111 57.3655 30.4342C56.6867 30.7573 55.8969 30.9194 54.9971 30.9194Z" fill="#5F295E"/>
<path fill-rule="evenodd" clip-rule="evenodd" d="M64.9424 18.4886H68.1164L68.1394 19.9802C68.4866 19.38 68.9724 18.9189 69.5957 18.5952C70.2195 18.2715 70.9493 18.1094 71.7863 18.1094C73.2072 18.1094 74.2922 18.5475 75.0422 19.4237C75.7917 20.3 76.1669 21.5667 76.1669 23.2244V30.5417H72.8757V23.8403C72.8757 21.9616 72.1571 21.0225 70.7204 21.0225C69.9306 21.0225 69.3197 21.2867 68.8855 21.8152C68.4507 22.3447 68.2342 23.0908 68.2342 24.0529V30.5417H64.9424V18.4886Z" fill="#5F295E"/>
<path fill-rule="evenodd" clip-rule="evenodd" d="M84.6449 27.9833C85.5761 27.9833 86.3424 27.6596 86.9421 27.0122C87.5418 26.3648 87.8419 25.529 87.8419 24.5024C87.8419 23.4921 87.5457 22.6635 86.9539 22.0162C86.3621 21.3688 85.5918 21.0451 84.6449 21.0451C83.698 21.0451 82.9283 21.3688 82.3365 22.0162C81.7441 22.6635 81.4479 23.4921 81.4479 24.5024C81.4479 25.529 81.748 26.3648 82.3477 27.0122C82.9474 27.6596 83.7137 27.9833 84.6449 27.9833ZM87.6529 34.5046V29.1192C86.8153 30.3203 85.5127 30.9194 83.7451 30.9194C82.6871 30.9194 81.7363 30.6597 80.892 30.138C80.0477 29.6174 79.3796 28.8713 78.8904 27.9002C78.4018 26.9292 78.1572 25.8128 78.1572 24.5495C78.1572 23.3816 78.3979 22.3123 78.8786 21.3413C79.3605 20.3703 80.0427 19.5883 80.9273 18.9964C81.8114 18.4046 82.806 18.1084 83.9112 18.1084C84.7319 18.1084 85.4774 18.2789 86.1494 18.6178C86.8192 18.9577 87.3527 19.4351 87.7477 20.0505L87.7942 18.4876H90.9435V34.5046H87.6529Z" fill="#5F295E"/>
<path fill-rule="evenodd" clip-rule="evenodd" d="M99.1844 30.9201C97.3848 30.9201 96.0071 30.455 95.0523 29.5227C94.0969 28.5915 93.6201 27.2653 93.6201 25.5448V18.4883H96.9108V25.4735C96.9108 27.1632 97.6765 28.0075 99.208 28.0075C100.692 28.0075 101.434 27.1632 101.434 25.4735V18.4883H104.726V25.5448C104.726 27.2816 104.248 28.6111 103.293 29.5345C102.338 30.4578 100.968 30.9201 99.1844 30.9201Z" fill="#5F295E"/>
<mask id="mask0" mask-type="alpha" maskUnits="userSpaceOnUse" x="0" y="0" width="204" height="46">
<path d="M0 45.6617H203.58V0H0V45.6617Z" fill="white"/>
</mask>
<g mask="url(#mask0)">
<path fill-rule="evenodd" clip-rule="evenodd" d="M107.4 30.5411H110.692V18.488H107.4V30.5411ZM109.034 16.0253C108.466 16.0253 107.996 15.8396 107.626 15.4682C107.254 15.098 107.069 14.6442 107.069 14.1073C107.069 13.5705 107.254 13.1205 107.626 12.7576C107.996 12.3941 108.466 12.2129 109.034 12.2129C109.603 12.2129 110.073 12.3941 110.444 12.7576C110.814 13.1205 111 13.5705 111 14.1073C111 14.6599 110.814 15.1176 110.444 15.48C110.073 15.8441 109.603 16.0253 109.034 16.0253Z" fill="#5F295E"/>
<path fill-rule="evenodd" clip-rule="evenodd" d="M113.438 30.5422H116.73V11.3613H113.438V30.5422Z" fill="#5F295E"/>
<path fill-rule="evenodd" clip-rule="evenodd" d="M119.476 30.5411H122.768V18.488H119.476V30.5411ZM121.111 16.0253C120.542 16.0253 120.072 15.8396 119.702 15.4682C119.331 15.098 119.146 14.6442 119.146 14.1073C119.146 13.5705 119.331 13.1205 119.702 12.7576C120.072 12.3941 120.542 12.2129 121.111 12.2129C121.679 12.2129 122.148 12.3941 122.519 12.7576C122.89 13.1205 123.076 13.5705 123.076 14.1073C123.076 14.6599 122.89 15.1176 122.519 15.48C122.148 15.8441 121.679 16.0253 121.111 16.0253Z" fill="#5F295E"/>
<path fill-rule="evenodd" clip-rule="evenodd" d="M126.628 21.2114H124.283V18.4884H126.628V15.2207H129.919V18.4884H132.785V21.2114H129.919V30.5415H126.628V21.2114Z" fill="#5F295E"/>
<path fill-rule="evenodd" clip-rule="evenodd" d="M138.633 29.7128L133.613 18.4883H137.189L140.315 26.232L143.297 18.4883H146.826L139.688 34.5064H136.278L138.633 29.7128Z" fill="#5F295E"/>
<path fill-rule="evenodd" clip-rule="evenodd" d="M154.279 27.7232H157.713C158.676 27.7232 159.417 27.4988 159.939 27.0484C160.46 26.5985 160.72 25.9635 160.72 25.1422C160.72 23.5002 159.655 22.6795 157.523 22.6795H154.279V27.7232ZM154.279 19.9083H157.026C158.005 19.9083 158.739 19.7192 159.228 19.3406C159.718 18.9614 159.963 18.3779 159.963 17.5887C159.963 16.8622 159.721 16.3096 159.241 15.931C158.758 15.5518 158.036 15.3627 157.074 15.3627H154.279V19.9083ZM150.846 12.5449H157.547C159.442 12.5449 160.898 12.9438 161.915 13.7404C162.934 14.5375 163.444 15.6707 163.444 17.1382C163.444 17.9595 163.242 18.71 162.84 19.3877C162.437 20.067 161.888 20.5876 161.194 20.9506C162.172 21.2198 162.946 21.7483 163.514 22.537C164.084 23.3269 164.367 24.2581 164.367 25.3312C164.367 27.0209 163.818 28.3111 162.722 29.2031C161.624 30.0956 160.041 30.541 157.973 30.541H150.846V12.5449Z" fill="#5F295E"/>
<path fill-rule="evenodd" clip-rule="evenodd" d="M172.418 27.9833C173.35 27.9833 174.116 27.6596 174.716 27.0122C175.315 26.3648 175.615 25.529 175.615 24.5024C175.615 23.4921 175.319 22.6635 174.727 22.0162C174.136 21.3688 173.365 21.0451 172.418 21.0451C171.471 21.0451 170.702 21.3688 170.11 22.0162C169.518 22.6635 169.222 23.4921 169.222 24.5024C169.222 25.529 169.521 26.3648 170.121 27.0122C170.721 27.6596 171.487 27.9833 172.418 27.9833ZM171.519 30.9194C170.461 30.9194 169.51 30.6597 168.665 30.138C167.821 29.6174 167.153 28.8713 166.664 27.9002C166.175 26.9292 165.931 25.8128 165.931 24.5495C165.931 23.3816 166.171 22.3124 166.653 21.3413C167.134 20.3703 167.816 19.5883 168.701 18.9964C169.585 18.4046 170.579 18.1084 171.685 18.1084C172.505 18.1084 173.251 18.2789 173.923 18.6178C174.593 18.9577 175.126 19.4351 175.521 20.0505L175.568 18.4876H178.718V30.5407H175.568L175.521 29.0014C175.11 29.6331 174.565 30.111 173.887 30.4342C173.208 30.7573 172.418 30.9194 171.519 30.9194Z" fill="#5F295E"/>
<path fill-rule="evenodd" clip-rule="evenodd" d="M185.182 30.9204C184.267 30.9204 183.398 30.8138 182.577 30.6006C181.756 30.3869 181.125 30.1081 180.683 29.7597L181.085 27.0844C181.622 27.4474 182.249 27.7396 182.968 27.9601C183.686 28.1817 184.376 28.2916 185.04 28.2916C186.382 28.2916 187.053 27.9523 187.053 27.2735C187.053 26.9111 186.91 26.634 186.626 26.4449C186.342 26.2553 185.75 26.0343 184.851 25.7818C183.429 25.388 182.415 24.886 181.807 24.2784C181.199 23.6709 180.895 22.8535 180.895 21.827C180.895 20.6747 181.33 19.7671 182.198 19.104C183.066 18.4409 184.259 18.1094 185.774 18.1094C186.516 18.1094 187.257 18.1963 187.999 18.3697C188.742 18.5441 189.35 18.7724 189.823 19.0569L189.444 21.6615C188.955 21.3776 188.391 21.1527 187.751 20.9866C187.112 20.8211 186.5 20.7381 185.916 20.7381C184.764 20.7381 184.188 21.0455 184.188 21.6615C184.188 22.0087 184.325 22.2814 184.602 22.4783C184.878 22.6763 185.427 22.8928 186.247 23.1295C187.763 23.5716 188.832 24.0927 189.456 24.6919C190.079 25.2927 190.391 26.1212 190.391 27.1792C190.391 28.3472 189.93 29.2627 189.006 29.9258C188.083 30.5888 186.807 30.9204 185.182 30.9204Z" fill="#5F295E"/>
<path fill-rule="evenodd" clip-rule="evenodd" d="M200.431 23.2244C200.351 22.3879 200.079 21.7445 199.614 21.2946C199.148 20.8441 198.528 20.6192 197.755 20.6192C196.997 20.6192 196.374 20.8441 195.884 21.2946C195.395 21.7445 195.079 22.3879 194.937 23.2244H200.431ZM198.703 30.9204C197.297 30.9204 196.07 30.6674 195.019 30.1625C193.97 29.6576 193.153 28.9194 192.569 27.9483C191.985 26.9773 191.693 25.8374 191.693 24.5269C191.693 23.3113 191.946 22.218 192.45 21.2469C192.956 20.2764 193.674 19.5107 194.605 18.9497C195.536 18.3904 196.618 18.1094 197.85 18.1094C198.987 18.1094 199.985 18.35 200.845 18.8319C201.705 19.3138 202.377 20.0038 202.858 20.9036C203.34 21.8034 203.58 22.8693 203.58 24.1006C203.58 24.6217 203.541 25.0952 203.462 25.5215H194.96C195.371 27.3212 196.737 28.221 199.057 28.221C199.784 28.221 200.49 28.1464 201.177 27.996C201.864 27.8462 202.483 27.6291 203.036 27.3447L203.367 29.9258C202.799 30.2416 202.104 30.4862 201.284 30.6601C200.463 30.8334 199.602 30.9204 198.703 30.9204Z" fill="#5F295E"/>
<path fill-rule="evenodd" clip-rule="evenodd" d="M18.0931 28.9405C18.6087 27.6171 19.4344 24.2681 19.4434 24.2154C20.4554 25.7519 20.9979 27.5548 20.9979 29.4464C20.9979 30.8416 20.6955 32.1913 20.1362 33.426C19.8961 31.7655 19.1943 30.2195 18.0931 28.9405ZM16.077 28.9758H6.76873C4.15683 22.8477 4.18376 15.9993 6.555 9.98565H16.2902C18.6614 15.9993 18.6883 22.8477 16.077 28.9758ZM2.71793 33.426C2.14966 32.1913 1.85627 30.8416 1.85627 29.4464C1.85627 27.5638 2.39817 25.7608 3.41073 24.2154C3.41971 24.286 4.38795 27.9902 4.76044 28.9405C3.65027 30.2195 2.94849 31.7655 2.71793 33.426ZM11.4226 2.24923C13.0747 4.02584 14.4249 6.0246 15.4728 8.14733H7.38132C8.42024 6.01562 9.77051 4.02584 11.4226 2.24923ZM19.7985 21.6747C20.5003 13.894 17.7824 5.96233 12.08 0.260012C11.7334 -0.0866707 11.1208 -0.0866707 10.7741 0.260012C5.07178 5.96233 2.35385 13.885 3.05563 21.6747C1.0838 23.798 0 26.5333 0 29.4464C0 32.3865 1.11915 35.1841 3.15324 37.3164C3.65027 37.8409 4.92088 37.6008 4.71668 36.4457C4.6101 35.8421 4.47659 35.2554 4.47659 34.6787C4.47659 33.2398 4.91134 31.8715 5.72027 30.7171C5.85322 30.7877 6.00412 30.8326 6.164 30.8326H16.6896C16.85 30.8326 17.0009 30.7877 17.1339 30.7171C17.9422 31.8715 18.3776 33.2398 18.3776 34.6787C18.3776 35.2554 18.2261 35.8332 18.1375 36.4457C17.9512 37.7253 19.2835 37.7696 19.7009 37.3164C21.726 35.1763 22.8541 32.3865 22.8541 29.4464C22.8452 26.5333 21.7703 23.789 19.7985 21.6747Z" fill="#F1644B"/>
<path fill-rule="evenodd" clip-rule="evenodd" d="M7.68272 32.3779C7.16774 32.3779 6.75879 32.7953 6.75879 33.3019V37.9473C6.75879 38.4628 7.17672 38.8712 7.68272 38.8712C8.18928 38.8712 8.60664 38.4533 8.60664 37.9473V33.3019C8.60664 32.7869 8.18928 32.3779 7.68272 32.3779Z" fill="#5F295E"/>
<path fill-rule="evenodd" clip-rule="evenodd" d="M11.4222 32.3779C11.1647 32.3779 10.9336 32.484 10.7653 32.6534L10.7563 32.6623C10.6497 32.7689 10.5695 32.9109 10.5252 33.0707C10.5078 33.1504 10.4893 33.2312 10.4893 33.3198V42.6017C10.4893 42.673 10.4982 42.7442 10.5162 42.8143C10.6144 43.2233 10.9779 43.5251 11.4132 43.5251C11.8485 43.5251 12.2126 43.2233 12.3102 42.8143C12.3281 42.7442 12.3371 42.673 12.3371 42.6017V33.3019C12.3371 33.2132 12.3281 33.1336 12.3018 33.0528C12.2042 32.6623 11.8485 32.3779 11.4222 32.3779Z" fill="#5F295E"/>
<path fill-rule="evenodd" clip-rule="evenodd" d="M15.1622 32.3779C14.6472 32.3779 14.2383 32.7953 14.2383 33.3019V37.9473C14.2383 38.4628 14.6562 38.8712 15.1622 38.8712C15.6688 38.8712 16.0856 38.4533 16.0856 37.9473V33.3019C16.0951 32.7869 15.6772 32.3779 15.1622 32.3779Z" fill="#5F295E"/>
<path fill-rule="evenodd" clip-rule="evenodd" d="M32.5349 38.0134H30.4229V37.1299H35.6988V38.0134H33.5868V43.525H32.5349V38.0134Z" fill="#F1644B"/>
<path fill-rule="evenodd" clip-rule="evenodd" d="M36.6748 36.709H37.6425V39.7719C37.7659 39.5705 37.9381 39.4146 38.1597 39.3052C38.3813 39.1958 38.6382 39.1408 38.9299 39.1408C39.4404 39.1408 39.8314 39.2968 40.104 39.6081C40.3761 39.9194 40.5119 40.3671 40.5119 40.9505V43.5248H39.5442V41.1267C39.5442 40.7452 39.473 40.4619 39.3293 40.2768C39.1869 40.0917 38.9664 39.9991 38.6691 39.9991C38.3437 39.9991 38.0913 40.1063 37.9118 40.3194C37.7322 40.532 37.6425 40.8299 37.6425 41.2108V43.5248H36.6748V36.709Z" fill="#F1644B"/>
<path fill-rule="evenodd" clip-rule="evenodd" d="M44.7692 40.9924C44.7468 40.6446 44.643 40.3748 44.4579 40.1846C44.2728 39.9939 44.0175 39.8985 43.6922 39.8985C43.3724 39.8985 43.1115 39.9939 42.9096 40.1846C42.7076 40.3748 42.5842 40.6446 42.5394 40.9924H44.7692ZM44.0035 43.6598C43.5211 43.6598 43.0975 43.5712 42.7329 43.3945C42.3682 43.2178 42.085 42.9586 41.883 42.6164C41.6811 42.2742 41.5801 41.8726 41.5801 41.4131C41.5801 40.9806 41.6687 40.5941 41.8454 40.2519C42.0221 39.9092 42.2729 39.6388 42.5983 39.4396C42.9236 39.2405 43.2995 39.1406 43.7258 39.1406C44.1129 39.1406 44.4562 39.2253 44.7569 39.3931C45.0564 39.5614 45.2909 39.8059 45.4592 40.1257C45.6275 40.4449 45.7117 40.8179 45.7117 41.2443C45.7117 41.458 45.7004 41.6179 45.678 41.7245H42.5478C42.6095 42.0891 42.7733 42.3707 43.0397 42.5704C43.3068 42.769 43.6557 42.8689 44.0876 42.8689C44.5925 42.8689 45.0693 42.7589 45.5181 42.5407L45.6191 43.2975C45.4115 43.4102 45.1647 43.4988 44.8786 43.5628C44.5925 43.6273 44.3008 43.6598 44.0035 43.6598Z" fill="#F1644B"/>
<path fill-rule="evenodd" clip-rule="evenodd" d="M50.785 43.6342C50.325 43.6342 49.9194 43.5455 49.5693 43.3688C49.2187 43.1921 48.945 42.9369 48.7486 42.6031C48.5523 42.2693 48.4541 41.875 48.4541 41.4211C48.4541 40.9892 48.5495 40.6038 48.7402 40.2638C48.9309 39.925 49.2013 39.6569 49.5519 39.4605C49.9025 39.2642 50.3109 39.166 50.7765 39.166C51.0122 39.166 51.2461 39.1941 51.4789 39.2502C51.7117 39.3063 51.9181 39.382 52.0976 39.4774L51.9714 40.302C51.8087 40.2117 51.6264 40.1432 51.4245 40.0956C51.2225 40.0479 51.0262 40.0237 50.8354 40.0237C50.4091 40.0237 50.068 40.1488 49.8133 40.3985C49.5575 40.6487 49.4302 40.9808 49.4302 41.3959C49.4302 41.8278 49.5592 42.1655 49.8173 42.4096C50.0753 42.6536 50.4287 42.7759 50.8775 42.7759C51.2365 42.7759 51.6292 42.6861 52.0556 42.5061L52.165 43.306C51.9854 43.407 51.7751 43.4866 51.5339 43.5455C51.2926 43.6045 51.0424 43.6342 50.785 43.6342Z" fill="#F1644B"/>
<path fill-rule="evenodd" clip-rule="evenodd" d="M53.2676 43.5248H54.2353V36.709H53.2676V43.5248Z" fill="#F1644B"/>
<path fill-rule="evenodd" clip-rule="evenodd" d="M57.5926 42.7931C57.9741 42.7931 58.2838 42.663 58.5227 42.4016C58.7612 42.1407 58.8801 41.8058 58.8801 41.3963C58.8801 40.9868 58.7595 40.653 58.5183 40.395C58.277 40.1369 57.9685 40.0079 57.5926 40.0079C57.2168 40.0079 56.9082 40.1369 56.667 40.395C56.4258 40.653 56.3052 40.9868 56.3052 41.3963C56.3052 41.8058 56.4241 42.1407 56.6625 42.4016C56.9015 42.663 57.2112 42.7931 57.5926 42.7931ZM57.5926 43.6598C57.1775 43.6598 56.7989 43.5656 56.4567 43.3777C56.1145 43.1897 55.8407 42.9216 55.6365 42.5738C55.4312 42.2266 55.3291 41.8339 55.3291 41.3963C55.3291 40.9924 55.4245 40.6194 55.6152 40.2772C55.8059 39.935 56.0752 39.6601 56.423 39.4525C56.7708 39.245 57.1607 39.1406 57.5926 39.1406C58.0078 39.1406 58.3864 39.2349 58.7286 39.4228C59.0708 39.6107 59.3446 39.8772 59.5488 40.2222C59.7541 40.5672 59.8562 40.9582 59.8562 41.3963C59.8562 41.8058 59.7608 42.1817 59.5701 42.5239C59.3793 42.8661 59.1101 43.1409 58.7623 43.3479C58.4145 43.5555 58.0246 43.6598 57.5926 43.6598Z" fill="#F1644B"/>
<path fill-rule="evenodd" clip-rule="evenodd" d="M62.8265 43.6594C62.2207 43.6594 61.7522 43.4995 61.4213 43.1798C61.0903 42.86 60.9248 42.4084 60.9248 41.8245V39.2754H61.8925V41.8082C61.8925 42.4701 62.2066 42.8011 62.8349 42.8011C63.452 42.8011 63.7605 42.4701 63.7605 41.8082V39.2754H64.7282V41.8245C64.7282 42.4084 64.5644 42.86 64.2357 43.1798C63.9075 43.4995 63.438 43.6594 62.8265 43.6594Z" fill="#F1644B"/>
<path fill-rule="evenodd" clip-rule="evenodd" d="M68.0604 42.7923C68.4419 42.7923 68.7515 42.6622 68.9905 42.4008C69.2289 42.1399 69.3479 41.805 69.3479 41.3955C69.3479 40.986 69.2272 40.6522 68.986 40.3942C68.7448 40.1361 68.4363 40.0071 68.0604 40.0071C67.6846 40.0071 67.376 40.1361 67.1348 40.3942C66.8936 40.6522 66.773 40.986 66.773 41.3955C66.773 41.805 66.8919 42.1399 67.1303 42.4008C67.3693 42.6622 67.679 42.7923 68.0604 42.7923ZM67.8164 43.6591C67.4349 43.6591 67.091 43.5665 66.7859 43.3814C66.4796 43.1963 66.2384 42.9326 66.0617 42.5904C65.8855 42.2482 65.7969 41.8527 65.7969 41.4034C65.7969 41 65.8838 40.627 66.0577 40.2842C66.2316 39.9426 66.4768 39.666 66.7943 39.4557C67.1107 39.2453 67.4658 39.1398 67.8585 39.1398C68.167 39.1398 68.4458 39.201 68.6954 39.3216C68.9451 39.4416 69.1431 39.6144 69.289 39.8382V36.708H70.2566V43.5244H69.3226L69.3058 42.9438C68.9972 43.4206 68.5008 43.6591 67.8164 43.6591Z" fill="#F1644B"/>
<path fill-rule="evenodd" clip-rule="evenodd" d="M73.4707 43.5248H74.4384V36.709H73.4707V43.5248Z" fill="#F1644B"/>
<path fill-rule="evenodd" clip-rule="evenodd" d="M77.7958 42.7931C78.1772 42.7931 78.4869 42.663 78.7259 42.4016C78.9643 42.1407 79.0832 41.8058 79.0832 41.3963C79.0832 40.9868 78.9626 40.653 78.7214 40.395C78.4802 40.1369 78.1716 40.0079 77.7958 40.0079C77.4199 40.0079 77.1114 40.1369 76.8702 40.395C76.6289 40.653 76.5083 40.9868 76.5083 41.3963C76.5083 41.8058 76.6273 42.1407 76.8657 42.4016C77.1046 42.663 77.4143 42.7931 77.7958 42.7931ZM77.5517 43.6598C77.1703 43.6598 76.8264 43.5673 76.5212 43.3822C76.2149 43.197 75.9737 42.9334 75.797 42.5912C75.6209 42.249 75.5322 41.8535 75.5322 41.4042C75.5322 41.0008 75.6192 40.6278 75.7931 40.285C75.967 39.9434 76.2121 39.6668 76.5296 39.4565C76.846 39.2461 77.2011 39.1406 77.5938 39.1406C77.908 39.1406 78.1913 39.2046 78.4437 39.3302C78.6961 39.4565 78.8953 39.6348 79.0411 39.8643L79.058 39.2753H79.992V43.5252H79.058L79.0411 42.9446C78.7326 43.4214 78.2361 43.6598 77.5517 43.6598Z" fill="#F1644B"/>
<path fill-rule="evenodd" clip-rule="evenodd" d="M81.3545 39.2753H82.2801L82.2885 39.8228C82.4063 39.6034 82.5802 39.4351 82.8102 39.3173C83.0402 39.1995 83.3067 39.1406 83.6096 39.1406C84.1201 39.1406 84.5111 39.2966 84.7837 39.6079C85.0558 39.9187 85.1916 40.3664 85.1916 40.9498V43.5247H84.2239V41.1265C84.2239 40.745 84.1526 40.4617 84.009 40.2766C83.8665 40.0915 83.6461 39.9989 83.3488 39.9989C83.0234 39.9989 82.771 40.1055 82.5914 40.3187C82.4119 40.5318 82.3222 40.8297 82.3222 41.2106V43.5247H81.3545V39.2753Z" fill="#F1644B"/>
<path fill-rule="evenodd" clip-rule="evenodd" d="M88.5233 42.7923C88.9048 42.7923 89.2144 42.6622 89.4534 42.4008C89.6918 42.1399 89.8107 41.805 89.8107 41.3955C89.8107 40.986 89.6901 40.6522 89.4489 40.3942C89.2077 40.1361 88.8992 40.0071 88.5233 40.0071C88.1475 40.0071 87.8389 40.1361 87.5977 40.3942C87.3565 40.6522 87.2359 40.986 87.2359 41.3955C87.2359 41.805 87.3548 42.1399 87.5932 42.4008C87.8322 42.6622 88.1418 42.7923 88.5233 42.7923ZM88.2793 43.6591C87.8978 43.6591 87.5539 43.5665 87.2488 43.3814C86.9425 43.1963 86.7013 42.9326 86.5245 42.5904C86.3484 42.2482 86.2598 41.8527 86.2598 41.4034C86.2598 41 86.3467 40.627 86.5206 40.2842C86.6945 39.9426 86.9397 39.666 87.2572 39.4557C87.5736 39.2453 87.9287 39.1398 88.3214 39.1398C88.6299 39.1398 88.9087 39.201 89.1583 39.3216C89.408 39.4416 89.606 39.6144 89.7518 39.8382V36.708H90.7195V43.5244H89.7855L89.7687 42.9438C89.4601 43.4206 88.9637 43.6591 88.2793 43.6591Z" fill="#F1644B"/>
<path fill-rule="evenodd" clip-rule="evenodd" d="M92.0832 43.5245H93.0509V39.2751H92.0832V43.5245ZM92.5629 38.2906C92.389 38.2906 92.2448 38.2334 92.1298 38.1184C92.0142 38.0034 91.957 37.8592 91.957 37.6848C91.957 37.5114 92.0142 37.3684 92.1298 37.2562C92.2448 37.1434 92.389 37.0879 92.5629 37.0879C92.7368 37.0879 92.881 37.1434 92.996 37.2562C93.1115 37.3684 93.1687 37.5114 93.1687 37.6848C93.1687 37.8592 93.1115 38.0034 92.996 38.1184C92.881 38.2334 92.7368 38.2906 92.5629 38.2906Z" fill="#F1644B"/>
<path fill-rule="evenodd" clip-rule="evenodd" d="M94.4141 39.2753H95.3397L95.3481 39.8228C95.4659 39.6034 95.6398 39.4351 95.8698 39.3173C96.0998 39.1995 96.3663 39.1406 96.6692 39.1406C97.1797 39.1406 97.5707 39.2966 97.8433 39.6079C98.1154 39.9187 98.2511 40.3664 98.2511 40.9498V43.5247H97.2835V41.1265C97.2835 40.745 97.2122 40.4617 97.0686 40.2766C96.9261 40.0915 96.7057 39.9989 96.4083 39.9989C96.083 39.9989 95.8305 40.1055 95.651 40.3187C95.4715 40.5318 95.3817 40.8297 95.3817 41.2106V43.5247H94.4141V39.2753Z" fill="#F1644B"/>
<path fill-rule="evenodd" clip-rule="evenodd" d="M101.583 42.7931C101.964 42.7931 102.274 42.663 102.513 42.4016C102.751 42.1407 102.87 41.8058 102.87 41.3963C102.87 40.9868 102.75 40.653 102.508 40.395C102.267 40.1369 101.959 40.0079 101.583 40.0079C101.207 40.0079 100.898 40.1369 100.657 40.395C100.416 40.653 100.295 40.9868 100.295 41.3963C100.295 41.8058 100.414 42.1407 100.653 42.4016C100.892 42.663 101.201 42.7931 101.583 42.7931ZM101.423 45.662C101.137 45.662 100.84 45.6289 100.531 45.5616C100.222 45.4937 99.9813 45.4129 99.8074 45.3175L99.9168 44.4256C100.102 44.5434 100.322 44.6359 100.578 44.7027C100.833 44.77 101.092 44.8042 101.356 44.8042C101.861 44.8042 102.232 44.6831 102.471 44.4418C102.709 44.2012 102.828 43.8253 102.828 43.3148V42.9446C102.52 43.4214 102.023 43.6598 101.339 43.6598C100.957 43.6598 100.613 43.5673 100.308 43.3822C100.002 43.197 99.7608 42.9334 99.5841 42.5912C99.408 42.249 99.3193 41.8535 99.3193 41.4042C99.3193 41.0008 99.4063 40.6278 99.5802 40.285C99.7541 39.9434 99.9992 39.6668 100.317 39.4565C100.633 39.2461 100.988 39.1406 101.381 39.1406C101.695 39.1406 101.978 39.2046 102.231 39.3302C102.483 39.4565 102.682 39.6348 102.828 39.8643L102.845 39.2753H103.779V43.2475C103.779 44.0436 103.582 44.6455 103.186 45.0522C102.79 45.4589 102.203 45.662 101.423 45.662Z" fill="#F1644B"/>
<path fill-rule="evenodd" clip-rule="evenodd" d="M106.708 42.7933L109.073 40.0922H106.801V39.2754H110.293V40.008L107.911 42.7091H110.352V43.5253H106.708V42.7933Z" fill="#F1644B"/>
<path fill-rule="evenodd" clip-rule="evenodd" d="M113.38 42.7931C113.761 42.7931 114.071 42.663 114.31 42.4016C114.548 42.1407 114.667 41.8058 114.667 41.3963C114.667 40.9868 114.547 40.653 114.305 40.395C114.064 40.1369 113.756 40.0079 113.38 40.0079C113.004 40.0079 112.695 40.1369 112.455 40.395C112.213 40.653 112.092 40.9868 112.092 41.3963C112.092 41.8058 112.212 42.1407 112.45 42.4016C112.689 42.663 112.998 42.7931 113.38 42.7931ZM113.38 43.6598C112.965 43.6598 112.586 43.5656 112.244 43.3777C111.902 43.1897 111.628 42.9216 111.424 42.5738C111.218 42.2266 111.116 41.8339 111.116 41.3963C111.116 40.9924 111.212 40.6194 111.403 40.2772C111.593 39.935 111.862 39.6601 112.21 39.4525C112.558 39.245 112.948 39.1406 113.38 39.1406C113.795 39.1406 114.174 39.2349 114.516 39.4228C114.858 39.6107 115.132 39.8772 115.336 40.2222C115.541 40.5672 115.643 40.9582 115.643 41.3963C115.643 41.8058 115.548 42.1817 115.357 42.5239C115.167 42.8661 114.897 43.1409 114.549 43.3479C114.202 43.5555 113.812 43.6598 113.38 43.6598Z" fill="#F1644B"/>
<path fill-rule="evenodd" clip-rule="evenodd" d="M116.737 39.2753H117.663L117.671 39.8228C117.789 39.6034 117.964 39.4351 118.194 39.3173C118.423 39.1995 118.689 39.1406 118.993 39.1406C119.503 39.1406 119.894 39.2966 120.167 39.6079C120.439 39.9187 120.575 40.3664 120.575 40.9498V43.5247H119.607V41.1265C119.607 40.745 119.535 40.4617 119.392 40.2766C119.249 40.0915 119.029 39.9989 118.732 39.9989C118.407 39.9989 118.154 40.1055 117.974 40.3187C117.795 40.5318 117.706 40.8297 117.706 41.2106V43.5247H116.737V39.2753Z" fill="#F1644B"/>
<path fill-rule="evenodd" clip-rule="evenodd" d="M124.832 40.9924C124.809 40.6446 124.706 40.3748 124.52 40.1846C124.335 39.9939 124.08 39.8985 123.755 39.8985C123.435 39.8985 123.174 39.9939 122.973 40.1846C122.77 40.3748 122.647 40.6446 122.602 40.9924H124.832ZM124.067 43.6598C123.584 43.6598 123.161 43.5712 122.795 43.3945C122.431 43.2178 122.147 42.9586 121.946 42.6164C121.744 42.2742 121.643 41.8726 121.643 41.4131C121.643 40.9806 121.731 40.5941 121.908 40.2519C122.085 39.9092 122.335 39.6388 122.661 39.4396C122.986 39.2405 123.362 39.1406 123.789 39.1406C124.175 39.1406 124.519 39.2253 124.819 39.3931C125.119 39.5614 125.354 39.8059 125.522 40.1257C125.69 40.4449 125.775 40.8179 125.775 41.2443C125.775 41.458 125.763 41.6179 125.74 41.7245H122.61C122.672 42.0891 122.836 42.3707 123.103 42.5704C123.369 42.769 123.719 42.8689 124.15 42.8689C124.656 42.8689 125.132 42.7589 125.581 42.5407L125.682 43.2975C125.475 43.4102 125.227 43.4988 124.941 43.5628C124.656 43.6273 124.363 43.6598 124.067 43.6598Z" fill="#F1644B"/>
</g>
</g>
<defs>
<clipPath id="clip0">
<rect width="203.634" height="46" fill="white"/>
</clipPath>
</defs>
</svg>
